<svg xmlns="http://www.w3.org/2000/svg" width="256" height="256" viewBox="0 0 256 256" role="img" aria-label="gn">
  <rect width="256" height="256" rx="48" fill="#0f172a"/>
  <rect x="18" y="18" width="220" height="220" rx="40" fill="url(#grad)"/>
  <path d="M78 160c-18 0-32-14-32-32v-24c0-18 14-32 32-32h36c8 0 14 6 14 14s-6 14-14 14H78c-6 0-10 4-10 10v24c0 6 4 10 10 10h22v-20c0-8 6-14 14-14s14 6 14 14v34c0 8-6 14-14 14H78z" fill="#e2e8f0"/>
  <path d="M146 176c-8 0-14-6-14-14v-68c0-8 6-14 14-14s14 6 14 14v4c8-8 18-12 30-12 26 0 44 18 44 44v32c0 8-6 14-14 14s-14-6-14-14v-32c0-10-6-16-18-16-12 0-20 8-20 20v28c0 8-6 14-14 14z" fill="#e2e8f0"/>
  <defs>
    <linearGradient id="grad" x1="0" y1="0" x2="1" y2="1">
      <stop offset="0%" stop-color="#0ea5e9"/>
      <stop offset="100%" stop-color="#7c3aed"/>
    </linearGradient>
  </defs>
</svg>
